<svg width="42" height="42" viewBox="0 0 42 42" fill="none" xmlns="http://www.w3.org/2000/svg">
<g clip-path="url(#clip0_31417_3407)">
<rect x="0.751448" y="0.749965" width="40.4991" height="40.4991" rx="2.96296" fill="white"/>
<path d="M15.614 15.3724H7.73195C6.77621 15.3724 6.00071 16.1666 6.00071 17.1476V24.9514C6.00071 25.9233 6.76087 26.7126 7.70601 26.7266L15.6084 26.7268C16.5641 26.7268 17.3414 25.9324 17.3414 24.9514L17.3452 17.1476C17.3452 16.1666 16.5695 15.3724 15.614 15.3724ZM8.66874 25.8171L8.23858 25.8223C7.71774 25.8223 7.29728 25.3935 7.29728 24.8666L7.29412 24.7905V17.5841L7.29728 17.1956C7.31825 16.6858 7.70511 16.274 8.21264 16.274H9.08626C9.87959 16.274 10.5211 16.9631 10.5211 17.7747C10.5211 18.1778 10.3632 18.5416 10.1079 18.8075L7.87857 21.0687L9.96892 23.198C10.2373 23.4764 10.3998 23.8416 10.3998 24.2406C10.3998 25.1111 9.62628 25.8171 8.66874 25.8171ZM15.0952 25.8106L11.1976 25.8094C11.1976 25.8094 11.6483 24.8345 11.6483 24.232C11.6483 23.4974 11.4026 22.8398 11.018 22.4058L9.6856 21.0465L11.0444 19.6422C11.4511 19.26 11.7196 18.584 11.7196 17.815C11.7196 17.2058 11.5513 16.666 11.2788 16.274H12.2237C13.0164 16.274 13.6585 16.9631 13.6585 17.7747C13.6585 18.1778 13.5013 18.5416 13.2467 18.8075L11.0586 21.0456L15.6016 25.6786C15.4568 25.7693 15.2759 25.8106 15.0952 25.8106ZM16.046 24.3635L12.7899 21.045L14.3404 19.4696C14.6565 19.0737 14.8577 18.4793 14.8577 17.815C14.8577 17.2022 14.6862 16.6482 14.4126 16.2564L15.1058 16.278C15.6257 16.278 16.0487 16.7055 16.0487 17.234L16.046 24.3635Z" fill="#00529C"/>
<path d="M24.331 20.5173C24.3944 20.4539 24.4693 20.3722 24.5557 20.2723C24.6419 20.1724 24.7235 20.0544 24.8007 19.9182C24.8778 19.7819 24.9437 19.6301 24.9981 19.4621C25.0526 19.2942 25.0799 19.1149 25.0799 18.9243C25.0799 18.5523 25.0163 18.2052 24.8893 17.8829C24.7621 17.5607 24.567 17.2792 24.3038 17.0385C24.0405 16.7983 23.7116 16.6097 23.3167 16.4735C22.9219 16.3375 22.4611 16.2694 21.9348 16.2694H21.9204H20.4073H20.0134H18.4629V18.0049V24.0131V25.7999H22.2752C22.8288 25.7999 23.3119 25.725 23.7252 25.5752C24.138 25.4254 24.4808 25.219 24.7531 24.9558C25.0253 24.6926 25.2272 24.3862 25.359 24.0368C25.4905 23.6874 25.5563 23.313 25.5563 22.9135C25.5563 22.378 25.4339 21.9016 25.1889 21.4838C24.9437 21.0665 24.6577 20.7442 24.331 20.5173ZM22.6454 18.0157C22.7737 18.0647 22.8809 18.1283 22.9646 18.2084C23.1813 18.4163 23.2898 18.6649 23.2898 18.9541C23.2898 19.2164 23.2445 19.4332 23.1543 19.6048C23.0638 19.7767 22.9733 19.9078 22.8831 19.998H20.2329V17.9032H21.8802C22.189 17.9032 22.4433 17.9413 22.6454 18.0157ZM22.3704 21.6474C22.8502 21.6474 23.2057 21.7717 23.4371 22.0198C23.6548 22.2641 23.7644 22.5524 23.7644 22.886C23.7644 23.2297 23.6401 23.5232 23.3916 23.7673C23.1428 24.0113 22.734 24.1336 22.1645 24.1336H21.9517H20.2329V21.6474H22.3704Z" fill="#00529C"/>
<path d="M32.0212 21.695C32.3069 21.4999 32.5454 21.2729 32.736 21.0142C32.9266 20.7555 33.0671 20.4697 33.158 20.1566C33.2487 19.8433 33.2943 19.5234 33.2943 19.1966C33.2943 18.77 33.2237 18.3775 33.0831 18.0189C32.9422 17.6604 32.7312 17.3519 32.45 17.0931C32.1685 16.8344 31.8168 16.6325 31.3947 16.4873C30.9727 16.3422 30.4848 16.2694 29.9313 16.2694H29.8814H26.2143H26.18V25.7999H27.9844V22.26H28.9904L31.4787 25.7999H33.5936L31.0205 22.1375C31.4015 22.0378 31.7351 21.8903 32.0212 21.695ZM29.9448 17.9032C30.0583 17.9032 30.1654 17.9106 30.2674 17.9235C30.589 17.972 30.8518 18.0868 31.0544 18.2693C31.33 18.5181 31.4678 18.823 31.4678 19.1844C31.4678 19.3655 31.4383 19.5417 31.3796 19.7133C31.3208 19.8852 31.2283 20.0366 31.1017 20.1674C30.975 20.2987 30.8123 20.4047 30.6136 20.4861C30.4147 20.5676 30.1751 20.6082 29.8949 20.6082H27.9844V17.9032H29.9448Z" fill="#00529C"/>
<path d="M34.2299 16.2694V16.2721C34.2117 16.2716 34.1938 16.2694 34.1756 16.2694H34.1602V16.27V19.7634V22.2666V25.7999H36V16.2694H34.2299Z" fill="#00529C"/>
</g>
<rect x="0.380089" y="0.379594" width="41.2398" height="41.2398" rx="8.37037" stroke="#D5D7DA" stroke-width="0.740741"/>
<defs>
<clipPath id="clip0_31417_3407">
<rect x="0.750459" y="0.749965" width="40.4991" height="40.4991" rx="8" fill="white"/>
</clipPath>
</defs>
</svg>
