<svg width="42" height="42" viewBox="0 0 42 42" fill="none" xmlns="http://www.w3.org/2000/svg">
<g clip-path="url(#clip0_31417_3394)">
<rect x="0.750459" y="0.749965" width="40.4991" height="40.4991" rx="2.96296" fill="white"/>
<path fill-rule="evenodd" clip-rule="evenodd" d="M6.00367 19.552L8.53449 22.7445L6.00367 24.8417V19.552Z" fill="#F15A23"/>
<path fill-rule="evenodd" clip-rule="evenodd" d="M7.02307 24.842L8.92739 23.2489L10.2436 24.842H7.02307Z" fill="#F15A23"/>
<path fill-rule="evenodd" clip-rule="evenodd" d="M6.00367 17.8434L6.66412 18.6788L9.37964 22.0721L10.2596 21.3714C10.2596 21.3714 9.52907 20.5113 9.03858 19.5516C8.07959 17.6753 8.75853 16.5071 8.75853 16.5071H6.00367V17.8434Z" fill="#F15A23"/>
<path fill-rule="evenodd" clip-rule="evenodd" d="M9.76783 22.597L10.664 21.8567C10.664 21.8567 11.5199 22.9834 12.5123 23.2493C13.8128 23.5978 14.3886 22.7452 14.3886 22.7452V24.8424H11.5321L12.1762 24.2855C12.1762 24.2855 11.8402 24.5095 11.0183 23.9402C10.5332 23.6042 9.76783 22.597 9.76783 22.597Z" fill="#F15A23"/>
<path fill-rule="evenodd" clip-rule="evenodd" d="M9.84918 16.5017C9.84918 16.5017 9.56329 16.8911 9.76679 17.844C9.9843 18.8625 10.8493 19.9405 10.8473 19.9164C10.8473 19.9164 10.9029 18.846 11.5311 18.2179C12.87 16.879 14.3876 17.676 14.3876 17.676V16.5078L9.84918 16.5017Z" fill="#F15A23"/>
<path fill-rule="evenodd" clip-rule="evenodd" d="M14.3883 19.0878C14.3883 19.0878 13.5416 18.3625 12.8055 18.3625C11.8638 18.3625 11.3498 19.1755 11.3498 19.7652C11.3498 20.6242 11.7621 21.1015 12.176 21.5153C12.7707 22.11 13.4942 22.7514 14.3883 22.2352C14.3883 21.2582 14.3883 19.0878 14.3883 19.0878Z" fill="#F15A23"/>
<path fill-rule="evenodd" clip-rule="evenodd" d="M24.0305 16.5892H26.0285C26.0285 16.5892 27.7985 19.2692 28.6684 20.3765C29.5382 21.4838 30.4746 22.745 30.4746 22.745C30.4746 22.745 30.4746 19.0876 30.4746 17.1894C30.4746 16.9494 29.8446 16.5892 29.8446 16.5892H32.1486C32.1486 16.5892 31.3926 16.8998 31.3926 17.1894C31.3926 19.5524 31.3926 25.2715 31.3926 25.2715C31.3926 25.2715 30.6672 24.8692 29.8446 23.9133C28.9203 22.8393 25.6325 18.5034 25.6325 18.5034C25.6325 18.5034 25.6325 22.5967 25.6325 24.1194C25.6325 24.4071 26.2625 24.8421 26.2625 24.8421H24.0305C24.0305 24.8421 24.6425 24.4035 24.6425 24.1194C24.6425 22.0729 24.6425 19.0876 24.6425 17.1894C24.6425 16.9343 24.0305 16.5892 24.0305 16.5892Z" fill="#005E6A"/>
<path fill-rule="evenodd" clip-rule="evenodd" d="M33.4384 16.5892H36.0028C36.0028 16.5892 35.3142 16.9154 35.3142 17.1894C35.3142 19.0876 35.3142 22.235 35.3142 24.1194C35.3142 24.4189 36.0028 24.8421 36.0028 24.8421H33.4384C33.4384 24.8421 34.0795 24.4093 34.0795 24.1194C34.0795 21.8565 34.0795 19.0876 34.0795 17.1894C34.0795 16.9259 33.4384 16.5892 33.4384 16.5892Z" fill="#005E6A"/>
<path fill-rule="evenodd" clip-rule="evenodd" d="M16.4864 16.5892C16.4864 16.5892 17.1512 16.9207 17.1512 17.1894C17.1512 19.0876 17.1512 21.8565 17.1512 24.1194C17.1512 24.414 16.4864 24.8421 16.4864 24.8421C16.4864 24.8421 19.8077 24.8421 20.2854 24.8421C20.5228 24.8421 23.1821 24.4073 23.1821 22.3571C23.1821 20.3069 21.1164 20.1149 21.1164 20.1149C21.1164 20.1149 22.3748 19.765 22.3748 18.3623C22.3748 16.8504 20.5228 16.5892 20.2854 16.5892C19.7919 16.5892 16.4864 16.5892 16.4864 16.5892ZM18.5046 19.979V17.3989C18.5046 17.3989 19.6058 17.3989 20.0479 17.3989C20.2854 17.3989 21.1164 17.6761 21.1164 18.7047C21.1164 19.5524 20.2854 19.979 20.0479 19.979C19.5096 19.979 18.5046 19.979 18.5046 19.979ZM18.5046 20.6557C18.5046 20.6557 20.0479 20.6557 20.2854 20.6557C20.5228 20.6557 21.9237 21.0196 21.9237 22.235C21.9237 23.4742 20.5228 23.9133 20.2854 23.9133C20.0479 23.9133 18.5046 23.9133 18.5046 23.9133V20.6557Z" fill="#005E6A"/>
</g>
<rect x="0.380089" y="0.379594" width="41.2398" height="41.2398" rx="8.37037" stroke="#D5D7DA" stroke-width="0.740741"/>
<defs>
<clipPath id="clip0_31417_3394">
<rect x="0.750459" y="0.749965" width="40.4991" height="40.4991" rx="8" fill="white"/>
</clipPath>
</defs>
</svg>
