<svg width="42" height="42" viewBox="0 0 42 42" fill="none" xmlns="http://www.w3.org/2000/svg">
<rect x="0.380089" y="0.379594" width="41.2398" height="41.2398" rx="8.37037" stroke="#D5D7DA" stroke-width="0.740741"/>
<path fill-rule="evenodd" clip-rule="evenodd" d="M28.0858 16.8378C27.5083 17.1832 26.1462 17.9901 25.6377 18.2906C25.3278 18.4537 24.61 18.5249 24.2041 17.9595C24.1968 17.9493 23.6641 17.2618 23.6424 17.236C23.6271 17.2177 23.2828 16.6901 22.5155 16.6736C22.4021 16.6708 21.8384 16.6677 21.2885 16.9906C20.5574 17.422 18.8573 18.426 18.8573 18.426C18.8568 18.426 18.8568 18.4269 18.8559 18.4269C18.1571 18.8399 17.6126 19.1614 17.6126 19.1614L18.2559 19.9776C18.5569 20.3636 19.2356 20.6622 19.8241 20.3132C19.8241 20.3132 21.9988 19.0124 22.0068 19.0087C22.9473 18.4758 23.6731 18.4758 24.1548 18.6741C24.5871 18.8628 24.9633 19.333 24.9633 19.333C24.9633 19.333 25.4548 19.9623 25.5415 20.0723C25.8212 20.4279 26.2842 20.2882 26.2842 20.2882C26.2842 20.2882 26.4557 20.2681 26.7143 20.1096C26.7143 20.1096 28.8208 18.848 28.8222 18.8475C29.4911 18.4422 30.1045 18.3665 30.4181 18.3963C31.4001 18.4885 31.7052 19.1971 32.1309 19.6915C32.3817 19.9823 32.608 20.1474 32.954 20.139C33.1813 20.1341 33.4382 19.9917 33.4761 19.9659L35.9986 18.4623C35.9986 18.4623 35.7397 18.0596 35.2097 17.4332C34.7353 16.8742 34.2314 17.1271 33.8296 17.3326C33.6608 17.4189 33.0492 17.8391 32.4434 18.1322C32.0116 18.341 31.3915 18.2782 31.0517 17.8445C31.0314 17.8181 30.4815 17.1305 30.4237 17.0459C30.2018 16.7588 29.7689 16.5017 29.214 16.5017C28.8766 16.5017 28.4937 16.5967 28.0858 16.8378Z" fill="url(#paint0_linear_31417_3442)"/>
<path fill-rule="evenodd" clip-rule="evenodd" d="M6.02936 22.7164C6.02936 22.2674 6.02146 21.8906 5.99774 21.5547H6.82055L6.85912 22.1319H6.88221C7.0687 21.8269 7.40974 21.4662 8.0459 21.4662C8.54244 21.4662 8.93029 21.7553 9.0929 22.1879H9.10887C9.24098 21.9716 9.39561 21.8114 9.57388 21.6988C9.78353 21.5468 10.0241 21.4662 10.3344 21.4662C10.9626 21.4662 11.5982 21.9068 11.5982 23.157V25.4564H10.6675V23.3014C10.6675 22.6525 10.4507 22.2674 9.99326 22.2674C9.66692 22.2674 9.4262 22.5082 9.32604 22.7888C9.30248 22.8847 9.27924 23.0049 9.27924 23.1163V25.4564H8.34821V23.1969C8.34821 22.6525 8.13911 22.2674 7.69687 22.2674C7.34002 22.2674 7.09985 22.5563 7.01431 22.8282C6.97526 22.9249 6.9596 23.0368 6.9596 23.1487V25.4564H6.02936V22.7164Z" fill="#003A70"/>
<path fill-rule="evenodd" clip-rule="evenodd" d="M15.2241 24.519C15.2241 24.8714 15.2396 25.2153 15.2784 25.4564H14.4171L14.3553 25.0238H14.3317C14.0991 25.3286 13.7035 25.5446 13.2149 25.5446C12.4545 25.5446 12.0281 24.9762 12.0281 24.3829C12.0281 23.3971 12.8733 22.9008 14.2696 22.9087V22.8443C14.2696 22.5878 14.1687 22.1635 13.5017 22.1635C13.1292 22.1635 12.7412 22.2837 12.4854 22.4517L12.299 21.8113C12.5787 21.6347 13.0678 21.4662 13.6646 21.4662C14.8752 21.4662 15.2241 22.2599 15.2241 23.1088V24.519ZM14.2929 23.5489C13.6182 23.5327 12.9745 23.685 12.9745 24.2779C12.9745 24.6621 13.2149 24.8388 13.5175 24.8388C13.8972 24.8388 14.1769 24.5823 14.2619 24.302C14.285 24.2299 14.2929 24.1494 14.2929 24.0856V23.5489Z" fill="#003A70"/>
<path fill-rule="evenodd" clip-rule="evenodd" d="M15.8847 22.7164C15.8847 22.2674 15.8762 21.8906 15.8536 21.5547H16.6906L16.7374 22.1395H16.7603C16.9234 21.8354 17.3345 21.4662 17.9627 21.4662C18.6222 21.4662 19.3048 21.9068 19.3048 23.141V25.4564H18.3508V23.2534C18.3508 22.6922 18.1492 22.2674 17.6294 22.2674C17.2493 22.2674 16.9856 22.5479 16.8845 22.8445C16.854 22.9328 16.8459 23.0533 16.8459 23.1647V25.4564H15.8847V22.7164Z" fill="#003A70"/>
<path fill-rule="evenodd" clip-rule="evenodd" d="M23.44 19.9865V24.3581C23.44 24.7586 23.4553 25.192 23.4708 25.4561H22.6175L22.5793 24.8393H22.5635C22.3384 25.2721 21.8801 25.5443 21.3299 25.5443C20.4305 25.5443 19.7167 24.7512 19.7167 23.5494C19.7088 22.2433 20.4999 21.4659 21.4074 21.4659C21.927 21.4659 22.2996 21.6906 22.47 21.9792H22.4857V19.9865H23.44ZM22.4863 23.1793C22.4863 23.1001 22.4784 23.0035 22.4634 22.9236C22.378 22.539 22.0753 22.2263 21.6408 22.2263C21.0281 22.2263 20.6867 22.7875 20.6867 23.5166C20.6867 24.2295 21.0281 24.7504 21.6331 24.7504C22.0208 24.7504 22.3623 24.478 22.4553 24.0535C22.4784 23.965 22.4863 23.8689 22.4863 23.7644V23.1793Z" fill="#003A70"/>
<path fill-rule="evenodd" clip-rule="evenodd" d="M24.1146 25.4566H25.0774V21.5552H24.1146V25.4566Z" fill="#003A70"/>
<path fill-rule="evenodd" clip-rule="evenodd" d="M25.7525 22.8119C25.7525 22.2834 25.7444 21.9063 25.7213 21.5541H26.5514L26.5818 22.299H26.614C26.7998 21.7461 27.2421 21.5541 27.6452 21.5541C27.7381 21.5541 27.7924 21.5377 27.8701 21.5541V22.4196C27.7924 22.4036 27.7072 22.3876 27.5908 22.3876C27.1333 22.3876 26.8227 22.6918 26.7375 23.1322C26.7224 23.2204 26.7068 23.325 26.7068 23.4377V25.456H25.7525V22.8119Z" fill="#003A70"/>
<path fill-rule="evenodd" clip-rule="evenodd" d="M28.3128 25.4566H29.2742V21.5552H28.3128V25.4566Z" fill="#003A70"/>
<defs>
<linearGradient id="paint0_linear_31417_3442" x1="17.6126" y1="20.4678" x2="35.9986" y2="20.4678" gradientUnits="userSpaceOnUse">
<stop stop-color="#FFCA06"/>
<stop offset="0.330844" stop-color="#FBAA18"/>
<stop offset="0.694742" stop-color="#FFC907"/>
<stop offset="1" stop-color="#FAA619"/>
</linearGradient>
</defs>
</svg>
