<svg width="42" height="42" viewBox="0 0 42 42" fill="none" xmlns="http://www.w3.org/2000/svg">
<g clip-path="url(#clip0_31417_3459)">
<rect x="0.750459" y="0.749965" width="40.4991" height="40.4991" rx="2.96296" fill="white"/>
<path d="M10.4223 23.2609C10.4223 22.8862 10.4264 21.8846 10.4172 21.7612C10.4252 20.2708 9.34158 19.2194 8.65697 19.3014C8.18325 19.3425 7.78624 19.5356 7.57307 20.0913C7.37549 20.6092 7.55213 21.298 8.20902 21.4597C8.91142 21.6333 9.32157 21.7777 9.6184 21.9815C9.98211 22.2309 10.279 22.7075 10.2869 23.2615" fill="#0060AF"/>
<path d="M10.7024 25.5269C9.46387 25.5269 8.19104 25.2218 6.9199 24.6185L6.88871 24.6032L6.87379 24.5714C6.30335 23.3673 6.00169 22.0503 6.00169 20.7618C6.00169 19.4752 6.29098 18.2146 6.86184 17.0121L6.87752 16.9801L6.9093 16.9642C8.08517 16.4071 9.35012 16.125 10.6702 16.125C11.8999 16.125 13.2131 16.4391 14.4674 17.035L14.4996 17.0493L14.5144 17.0818C15.0958 18.3081 15.4024 19.6248 15.4024 20.892C15.4024 22.1542 15.108 23.4159 14.526 24.6415L14.5106 24.6737L14.4783 24.6886C13.3204 25.2367 12.0145 25.5269 10.7024 25.5269ZM7.03754 24.4534C8.27241 25.0342 9.50396 25.3276 10.7024 25.3276C11.9731 25.3276 13.2369 25.0498 14.3618 24.5233C14.9206 23.3357 15.2039 22.1135 15.2039 20.892C15.2039 19.6655 14.9082 18.3897 14.349 17.1995C13.1318 16.6273 11.8605 16.3238 10.6702 16.3238C9.39217 16.3238 8.16722 16.5949 7.02686 17.1296C6.47949 18.2952 6.20088 19.5165 6.20088 20.7618C6.20088 22.0094 6.49042 23.2857 7.03754 24.4534Z" fill="#0060AF"/>
<path d="M10.1289 23.2621C10.1312 22.7817 9.86307 22.357 9.51267 22.1287C9.20186 21.927 8.78459 21.7944 8.11143 21.6237C7.90334 21.5705 7.68568 21.4523 7.6183 21.3016C7.44005 21.4812 7.40767 21.885 7.43903 22.1209C7.47548 22.394 7.7946 22.8441 8.2751 22.8617C8.56854 22.8735 8.93953 22.7986 9.11744 22.7608C9.42436 22.6945 9.90994 22.8867 9.98724 23.2615" fill="#0060AF"/>
<path d="M10.6698 16.9788C9.85504 16.9788 9.15128 17.5161 9.15383 18.4458C9.15637 19.2276 9.78512 19.6462 10.0095 19.9451C10.3485 20.3956 10.532 20.9288 10.5511 21.7447C10.5659 22.3941 10.5652 23.0353 10.5685 23.2625H10.7483C10.7452 23.0248 10.7371 22.3441 10.7464 21.7246C10.7586 20.9085 10.9487 20.3956 11.2879 19.9451C11.5142 19.6462 12.1424 19.2276 12.1438 18.4458C12.1469 17.5161 11.4435 16.9788 10.6295 16.9788" fill="#0060AF"/>
<path d="M10.8762 23.2609C10.8762 22.8862 10.872 21.8846 10.8811 21.7612C10.8731 20.2708 11.9561 19.2194 12.6413 19.3014C13.115 19.3425 13.5116 19.5356 13.7253 20.0913C13.9227 20.6092 13.7451 21.298 13.089 21.4597C12.3862 21.6333 11.9766 21.7777 11.679 21.9815C11.3157 22.2309 11.0396 22.7075 11.0311 23.2615" fill="#0060AF"/>
<path d="M11.1699 23.2621C11.1674 22.7817 11.4354 22.357 11.7847 22.1287C12.0968 21.927 12.5146 21.7944 13.1872 21.6237C13.3957 21.5705 13.6131 21.4523 13.6793 21.3016C13.8584 21.4812 13.8907 21.885 13.8593 22.1209C13.8221 22.394 13.5038 22.8441 13.0242 22.8617C12.7308 22.8735 12.3579 22.7986 12.1807 22.7608C11.875 22.6945 11.3881 22.8867 11.3104 23.2615" fill="#0060AF"/>
<path d="M11.4215 24.8123L11.3172 24.0516L11.5689 24.0134C11.6301 24.005 11.7047 24.0157 11.7346 24.0541C11.7675 24.0942 11.7776 24.1273 11.784 24.1799C11.7935 24.2449 11.7746 24.3201 11.7014 24.3575V24.3598C11.7832 24.3598 11.8326 24.4186 11.8469 24.5177C11.8491 24.5387 11.8553 24.5893 11.8491 24.6315C11.8325 24.7319 11.7725 24.7642 11.6714 24.7784L11.4215 24.8123ZM11.5834 24.6761C11.6133 24.6718 11.6435 24.6702 11.6672 24.6551C11.7034 24.6315 11.7001 24.5809 11.6951 24.5433C11.6824 24.4608 11.6609 24.4294 11.5733 24.4424L11.5183 24.4509L11.5532 24.6803L11.5834 24.6761ZM11.5307 24.3246C11.564 24.3192 11.6092 24.3152 11.628 24.2835C11.6378 24.2624 11.6505 24.2457 11.6422 24.1987C11.6319 24.143 11.6134 24.1085 11.5427 24.1219L11.4769 24.1325L11.5028 24.3275" fill="#0060AF"/>
<path d="M12.5111 24.3551C12.513 24.3692 12.5153 24.385 12.5162 24.3991C12.5365 24.5379 12.5111 24.6527 12.3551 24.6844C12.1246 24.7288 12.0804 24.5855 12.0398 24.385L12.0182 24.2765C11.9864 24.0846 11.9728 23.9393 12.1975 23.8946C12.3243 23.8714 12.408 23.9219 12.4428 24.048C12.4483 24.0668 12.455 24.0854 12.4576 24.1043L12.3197 24.1328C12.3038 24.0854 12.2826 24.0008 12.2206 24.0079C12.1092 24.0213 12.146 24.1599 12.1575 24.2178L12.1989 24.426C12.2114 24.489 12.2361 24.5896 12.3325 24.5702C12.4107 24.5545 12.3766 24.4326 12.3697 24.3827" fill="#0060AF"/>
<path d="M12.7333 24.5851L12.6856 23.7978L12.8709 23.7413L13.2594 24.426L13.1135 24.4696L13.0214 24.2956L12.8595 24.3443L12.8804 24.5421L12.7333 24.5851ZM12.8459 24.2171L12.963 24.1832L12.8075 23.8647" fill="#0060AF"/>
<path d="M8.15697 23.9903C8.21494 23.8046 8.2669 23.668 8.48812 23.7287C8.60653 23.7618 8.67993 23.814 8.67646 23.9515C8.67589 23.9821 8.66578 24.0133 8.65917 24.0436L8.52143 24.0055C8.53949 23.9296 8.55093 23.8693 8.45735 23.8405C8.3492 23.8108 8.32284 23.942 8.30792 23.9986L8.2519 24.205C8.2341 24.2662 8.21274 24.3675 8.30792 24.3936C8.38658 24.4148 8.4343 24.3376 8.46278 24.2249L8.36641 24.1994L8.39972 24.0799L8.62628 24.1528L8.51872 24.5506L8.41447 24.5223L8.43795 24.4382H8.43498C8.387 24.507 8.32843 24.5142 8.27715 24.5043C8.05059 24.4431 8.07424 24.295 8.12832 24.0972" fill="#0060AF"/>
<path d="M8.99991 24.3257L8.93168 24.6493L8.7781 24.6161L8.94177 23.8604L9.20359 23.9196C9.35684 23.9527 9.40311 24.0209 9.38142 24.1613C9.36904 24.242 9.32929 24.3288 9.23224 24.3218L9.23122 24.3205C9.31327 24.3492 9.32022 24.3906 9.30589 24.4621C9.29971 24.4925 9.25707 24.6772 9.28648 24.7071L9.2875 24.7297L9.12858 24.6882C9.12197 24.6371 9.14443 24.545 9.15333 24.4941C9.16231 24.449 9.17664 24.3854 9.13087 24.3615C9.09501 24.3424 9.08171 24.3434 9.04119 24.334L8.99991 24.3257ZM9.0261 24.2086L9.12951 24.2365C9.19232 24.2456 9.22724 24.213 9.23961 24.1372C9.2508 24.0676 9.23631 24.0404 9.17994 24.0269L9.06908 24.0045" fill="#0060AF"/>
<path d="M9.98433 24.0299L10.1362 24.0475L10.0708 24.5787C10.039 24.7471 9.9739 24.8208 9.78862 24.7977C9.60011 24.7739 9.55536 24.688 9.5668 24.5183L9.63266 23.9875L9.78574 24.005L9.72005 24.5239C9.7131 24.5803 9.70005 24.6638 9.80032 24.6739C9.88923 24.6807 9.9094 24.6218 9.9194 24.5485" fill="#0060AF"/>
<path d="M10.3047 24.8267L10.3504 24.0671L10.6422 24.0797C10.7801 24.0865 10.8162 24.1991 10.8119 24.3066C10.8079 24.372 10.7875 24.445 10.7306 24.4845C10.6839 24.5182 10.6238 24.5261 10.5682 24.5234L10.4731 24.5182L10.4541 24.8365L10.3047 24.8267ZM10.4774 24.4023L10.5547 24.4066C10.6175 24.4089 10.6591 24.3841 10.6645 24.2919C10.6676 24.2033 10.6341 24.1883 10.5527 24.1847L10.4914 24.1826" fill="#0060AF"/>
<path d="M30.8868 17.7129L29.727 19.8181C29.2892 19.4626 28.7546 19.2009 28.0725 19.2009C26.4585 19.2009 25.8028 20.4041 25.8028 21.2516C25.8028 21.8807 26.2148 22.8089 27.651 22.8089C28.2538 22.8089 29.1108 22.3895 29.3574 22.1987L28.2103 24.6411C27.6635 24.7501 27.4839 24.8178 27.021 24.8321C24.4505 24.9088 23.4118 23.3297 23.4125 21.7162C23.4142 19.5831 25.3107 16.9889 28.4546 16.9889C28.6473 16.9889 28.8829 17.0556 29.0844 17.1294L29.288 16.869" fill="#0060AF"/>
<path d="M35.6729 16.9348L36.0014 24.5862H33.5571L33.5556 23.2739H31.8889L31.3403 24.5862H28.6895L31.4609 19.1224L30.8359 19.1183L32.0233 16.9348H35.6729ZM33.5398 19.2755L32.5974 21.501H33.5682" fill="#0060AF"/>
<path d="M21.8695 16.9348C23.0799 16.9416 23.7639 17.5987 23.7639 18.5478C23.7639 19.4228 23.0425 20.1973 22.2506 20.5978C23.0659 20.8975 23.1365 21.6332 23.1365 22.1537C23.1365 23.4112 21.8746 24.5862 20.2344 24.5862H16.6574L18.0527 19.1986L17.4796 19.1953L18.6512 16.9348C18.6512 16.9348 20.8851 16.928 21.8695 16.9348ZM20.6819 20.037C20.9323 20.037 21.3744 19.9736 21.4849 19.489C21.606 18.963 21.1911 18.9489 20.9921 18.9489L20.281 18.9458L20.033 20.037L20.6819 20.037ZM19.6765 21.3891L19.3491 22.6466H20.1864C20.5159 22.6466 20.9648 22.4831 21.0748 22.0739C21.1835 21.6635 20.8696 21.3891 20.5414 21.3891" fill="#0060AF"/>
</g>
<rect x="0.380089" y="0.379594" width="41.2398" height="41.2398" rx="3.33333" stroke="#D5D7DA" stroke-width="0.740741"/>
<defs>
<clipPath id="clip0_31417_3459">
<rect x="0.750459" y="0.749965" width="40.4991" height="40.4991" rx="2.96296" fill="white"/>
</clipPath>
</defs>
</svg>
